<svg xmlns="http://www.w3.org/2000/svg" width="45" height="48" viewBox="0 0 45 48" fill="none">
<path d="M10.1849 26C10.0341 25.1912 10.1209 24.3561 10.4347 23.5955C10.7486 22.8348 11.2762 22.1809 11.9539 21.7127C12.6317 21.2445 13.4306 20.9819 14.2545 20.9566C15.0784 20.9312 15.892 21.1443 16.5973 21.57C16.6173 21.47 16.6404 21.37 16.6704 21.27C16.8787 20.5576 17.3084 19.9296 17.8975 19.4769C18.4866 19.0241 19.2047 18.77 19.9481 18.7511C20.6914 18.7323 21.4214 18.9498 22.0328 19.3722C22.6442 19.7946 23.1052 20.4 23.3493 21.101C23.86 20.653 24.4704 20.3333 25.1299 20.1683C25.7894 20.0033 26.4788 19.9979 27.1408 20.1524C27.8028 20.3069 28.4182 20.617 28.9359 21.0568C29.4537 21.4966 29.8587 22.0535 30.1173 22.681C30.5453 21.9803 31.2342 21.4775 32.033 21.2829C32.8318 21.0883 33.6753 21.2178 34.3786 21.643C34.375 21.0959 34.4896 20.5545 34.7143 20.0555C34.9391 19.5565 35.2688 19.1116 35.6812 18.7511C36.0935 18.3906 36.5787 18.1229 37.1039 17.9662C37.6291 17.8095 38.182 17.7675 38.7249 17.843C39.2678 17.9185 39.788 18.1097 40.2503 18.4037C40.7126 18.6978 41.1061 19.0876 41.404 19.5469C41.7019 20.0061 41.8972 20.524 41.9768 21.0653C42.0563 21.6066 42.0182 22.1587 41.865 22.684C41.865 22.684 38.1418 28.484 24.4194 28.484C12.2549 28.485 10.1849 26 10.1849 26Z" fill="#CBF4FF"/>
<path d="M42.8589 25.71L40.4333 37.639C40.1203 39.3742 39.2075 40.945 37.8539 42.0778C36.5003 43.2107 34.7915 43.8339 33.025 43.839H11.9744C10.2079 43.8339 8.49911 43.2107 7.14549 42.0778C5.79186 40.945 4.87912 39.3742 4.56615 37.639L2.14148 25.71C2.14148 25.71 8.68508 30.22 21.8595 30.22C35.0339 30.22 42.8589 25.71 42.8589 25.71Z" fill="#FCEFDE"/>
<path d="M38.3522 27.62L36.3153 37.639C36.0023 39.3742 35.0896 40.945 33.7359 42.0778C32.3823 43.2107 30.6735 43.8339 28.907 43.839H33.0239C34.7904 43.8339 36.4992 43.2107 37.8529 42.0778C39.2065 40.945 40.1192 39.3742 40.4322 37.639L42.8579 25.71C41.4146 26.4764 39.9069 27.1155 38.3522 27.62Z" fill="#FCE4C6"/>
<path d="M22.4997 30.623C14.5414 30.623 7.03493 28.672 1.359 25.128C1.19913 25.0281 1.06054 24.8978 0.951139 24.7445C0.841737 24.5911 0.763664 24.4178 0.721378 24.2343C0.679092 24.0509 0.673422 23.8609 0.704691 23.6753C0.73596 23.4897 0.803555 23.312 0.903618 23.1525C1.00368 22.9929 1.13425 22.8546 1.28787 22.7454C1.4415 22.6362 1.61517 22.5583 1.79896 22.5161C1.98276 22.4739 2.17308 22.4682 2.35907 22.4994C2.54506 22.5306 2.72307 22.5981 2.88293 22.698C8.29336 26.076 15.393 27.765 22.4957 27.765C29.5984 27.765 36.7011 26.076 42.1085 22.698C42.2684 22.5981 42.4464 22.5306 42.6324 22.4994C42.8184 22.4682 43.0087 22.4739 43.1925 22.5161C43.3763 22.5583 43.5499 22.6362 43.7036 22.7454C43.8572 22.8546 43.9878 22.9929 44.0878 23.1525C44.1879 23.312 44.2555 23.4897 44.2867 23.6753C44.318 23.8609 44.3123 24.0509 44.2701 24.2343C44.2278 24.4178 44.1497 24.5911 44.0403 24.7445C43.9309 24.8978 43.7923 25.0281 43.6324 25.128C37.9645 28.672 30.4581 30.623 22.4997 30.623Z" fill="#E7C33C"/>
<path d="M19.9437 8.52998L10.5947 10.49C10.585 10.492 10.575 10.4922 10.5653 10.4903C10.5556 10.4885 10.5463 10.4848 10.5381 10.4795C10.5298 10.4741 10.5226 10.4671 10.5171 10.4589C10.5115 10.4508 10.5076 10.4416 10.5055 10.432C10.324 9.57043 10.4928 8.6722 10.9747 7.93483C11.4567 7.19746 12.2123 6.68134 13.0755 6.49998L16.0663 5.87197C16.9295 5.6908 17.8294 5.85925 18.5682 6.34026C19.307 6.82127 19.8241 7.57547 20.0058 8.43698V8.43698C20.0085 8.44719 20.0089 8.45784 20.0072 8.46824C20.0054 8.47864 20.0015 8.48856 19.9956 8.49733C19.9897 8.50611 19.9821 8.51356 19.9731 8.51918C19.9642 8.5248 19.9542 8.52848 19.9437 8.52998V8.52998Z" fill="#E7C33C"/>
<path d="M6.17726 19.0823C6.8127 18.4481 6.8127 17.4199 6.17726 16.7856C5.54182 16.1514 4.51158 16.1514 3.87614 16.7856C3.24071 17.4199 3.24071 18.4481 3.87614 19.0823C4.51158 19.7165 5.54182 19.7165 6.17726 19.0823Z" fill="#EED05E"/>
<path d="M12.9813 43.033L15.0122 41.006C15.2302 40.8039 15.5181 40.6941 15.8155 40.6996C16.1129 40.7051 16.3966 40.8254 16.607 41.0354C16.8173 41.2453 16.9379 41.5284 16.9434 41.8252C16.9488 42.1221 16.8388 42.4095 16.6364 42.627L13.9011 45.357C12.9218 46.3341 11.5937 46.883 10.209 46.883H6.29644C5.99765 46.8742 5.71407 46.7495 5.50584 46.5355C5.29762 46.3214 5.18115 46.0348 5.18115 45.7365C5.18115 45.4382 5.29762 45.1515 5.50584 44.9375C5.71407 44.7234 5.99765 44.5988 6.29644 44.59H9.55572C10.16 44.5899 10.7582 44.4688 11.3148 44.2338C11.8714 43.9988 12.375 43.6548 12.796 43.222L12.9813 43.033Z" fill="#E7C33C"/>
<path d="M32.0181 43.033L29.9872 41.006C29.7692 40.8039 29.4813 40.6941 29.1839 40.6996C28.8865 40.7051 28.6028 40.8254 28.3924 41.0354C28.1821 41.2453 28.0615 41.5284 28.056 41.8252C28.0506 42.1221 28.1606 42.4095 28.363 42.627L31.0983 45.357C32.0776 46.3341 33.4057 46.883 34.7904 46.883H38.703C39.0017 46.8742 39.2853 46.7495 39.4935 46.5355C39.7018 46.3214 39.8182 46.0348 39.8182 45.7365C39.8182 45.4382 39.7018 45.1515 39.4935 44.9375C39.2853 44.7234 39.0017 44.5988 38.703 44.59H35.4437C34.8394 44.5899 34.2412 44.4688 33.6846 44.2338C33.128 43.9988 32.6244 43.6548 32.2034 43.222L32.0181 43.033Z" fill="#E7C33C"/>
<path d="M31.5431 18.157C32.5264 18.157 33.3235 17.3614 33.3235 16.38C33.3235 15.3986 32.5264 14.603 31.5431 14.603C30.5598 14.603 29.7626 15.3986 29.7626 16.38C29.7626 17.3614 30.5598 18.157 31.5431 18.157Z" fill="#CBF4FF"/>
<path d="M37.3763 13.592C38.1023 13.592 38.6908 13.0046 38.6908 12.28C38.6908 11.5554 38.1023 10.968 37.3763 10.968C36.6503 10.968 36.0618 11.5554 36.0618 12.28C36.0618 13.0046 36.6503 13.592 37.3763 13.592Z" fill="#CBF4FF"/>
<path d="M44.6784 22.79C44.4879 22.4844 44.2221 22.2326 43.9064 22.0586C43.5907 21.8846 43.2356 21.7942 42.875 21.796C42.8178 21.796 42.7607 21.796 42.7036 21.804C42.7429 20.7089 42.3805 19.6371 41.6843 18.7897C40.9881 17.9423 40.0061 17.3776 38.9224 17.2015C37.8388 17.0254 36.728 17.25 35.7984 17.8332C34.8689 18.4163 34.1845 19.318 33.8736 20.369C33.8462 20.4623 33.8222 20.5566 33.8015 20.652C33.1864 20.4805 32.538 20.4661 31.9159 20.6103C31.2938 20.7545 30.718 21.0525 30.2416 21.477C29.523 20.4461 28.4385 19.7264 27.208 19.4639C25.9775 19.2013 24.693 19.4155 23.6149 20.063C23.2136 19.407 22.639 18.8741 21.9541 18.5228C21.2693 18.1714 20.5007 18.0152 19.7327 18.0713C18.9647 18.1274 18.2271 18.3937 17.6008 18.8408C16.9745 19.2879 16.4838 19.8987 16.1825 20.606C16.0489 20.5526 15.91 20.5056 15.7657 20.465C15.0434 20.2566 14.283 20.2148 13.542 20.3427C12.8011 20.4706 12.099 20.7649 11.4887 21.2033C10.8784 21.6417 10.3759 22.2129 10.0192 22.8735C9.66246 23.5342 9.46083 24.2671 9.42952 25.017C8.17717 24.5904 6.95277 24.086 5.76345 23.507V20.124C5.88176 20.085 5.9967 20.0365 6.10712 19.979L6.77841 20.649C6.90864 20.7692 7.08045 20.8344 7.25781 20.831C7.43517 20.8275 7.6043 20.7557 7.72973 20.6305C7.85517 20.5053 7.92716 20.3365 7.93062 20.1594C7.93408 19.9824 7.86873 19.811 7.74828 19.681L7.07699 19.011C7.2513 18.6792 7.34236 18.3101 7.34236 17.9355C7.34236 17.5608 7.2513 17.1918 7.07699 16.86L7.74828 16.19C7.86873 16.06 7.93408 15.8885 7.93062 15.7115C7.92716 15.5345 7.85517 15.3657 7.72973 15.2405C7.6043 15.1153 7.43517 15.0434 7.25781 15.04C7.08045 15.0365 6.90864 15.1018 6.77841 15.222L6.10712 15.892C5.98206 15.8268 5.85126 15.7732 5.71636 15.732V6.18398C5.72783 5.17528 6.12073 4.20815 6.81636 3.47633C7.51198 2.7445 8.45897 2.30202 9.46761 2.23753C10.4763 2.17304 11.4721 2.4913 12.2556 3.12855C13.0391 3.7658 13.5524 4.67498 13.6927 5.67398L12.8571 5.84998C11.8353 6.0648 10.9407 6.67554 10.3696 7.54811C9.79852 8.42068 9.59771 9.48377 9.81125 10.504C9.81617 10.6059 9.84271 10.7057 9.88914 10.7966C9.93556 10.8876 10.0008 10.9677 10.0806 11.0316C10.1603 11.0955 10.2527 11.1417 10.3518 11.1673C10.4508 11.1929 10.5541 11.1972 10.6549 11.18L15.7757 10.104C15.9491 10.062 16.0992 9.95427 16.1944 9.80368C16.2895 9.6531 16.3222 9.47146 16.2854 9.29725C16.2487 9.12304 16.1455 8.96995 15.9976 8.87041C15.8497 8.77086 15.6688 8.73269 15.4932 8.76398L11.0987 9.68698C11.1007 9.10062 11.3039 8.53264 11.6746 8.07771C12.0452 7.62279 12.5609 7.30841 13.1357 7.18698L16.2737 6.52798C16.849 6.40702 17.4484 6.48682 17.9718 6.75402C18.4952 7.02122 18.9108 7.45963 19.1492 7.99598L18.8817 8.05198C18.7084 8.09398 18.5583 8.20168 18.4631 8.35227C18.368 8.50286 18.3353 8.68449 18.3721 8.8587C18.4088 9.03291 18.512 9.18601 18.6599 9.28555C18.8078 9.38509 18.9887 9.42326 19.1643 9.39198L20.1582 9.18298C20.2568 9.15717 20.3489 9.11106 20.4286 9.04763C20.5084 8.98419 20.5739 8.90482 20.6211 8.81462C20.6682 8.72441 20.696 8.62536 20.7026 8.52381C20.7091 8.42227 20.6943 8.32048 20.6592 8.22498C20.443 7.20586 19.8307 6.31392 18.9566 5.74477C18.0824 5.17562 17.0178 4.97574 15.9962 5.18898L15.0413 5.38898C14.8407 4.04938 14.1399 2.83506 13.0797 1.98958C12.0194 1.1441 10.6781 0.729997 9.32472 0.830339C7.97135 0.930682 6.70604 1.53805 5.7826 2.5306C4.85916 3.52316 4.34588 4.82749 4.34572 6.18198V15.729C4.21046 15.7705 4.07932 15.8244 3.95397 15.89L3.28268 15.22C3.15245 15.0998 2.98064 15.0345 2.80328 15.038C2.62592 15.0414 2.45679 15.1133 2.33136 15.2385C2.20592 15.3637 2.13392 15.5325 2.13047 15.7095C2.12701 15.8865 2.19236 16.058 2.31281 16.188L2.9841 16.858C2.8102 17.1897 2.71937 17.5586 2.71937 17.933C2.71937 18.3074 2.8102 18.6762 2.9841 19.008L2.31281 19.678C1.69862 20.291 2.65446 21.278 3.28268 20.646L3.95397 19.976C4.09386 20.0492 4.24091 20.1078 4.39281 20.151V22.787C4.00473 22.5703 3.62467 22.3466 3.25262 22.116C0.921125 20.664 -1.31017 24.267 0.994266 25.709C1.16059 25.809 1.32891 25.915 1.49523 26.016L3.88584 37.775C4.14294 39.1247 4.72958 40.3904 5.5938 41.4598C6.45801 42.5292 7.57313 43.3694 8.84038 43.906H6.29648C5.81722 43.9172 5.36137 44.115 5.02637 44.4573C4.69137 44.7995 4.50383 45.259 4.50383 45.7375C4.50383 46.2159 4.69137 46.6754 5.02637 47.0177C5.36137 47.3599 5.81722 47.5578 6.29648 47.569H10.212C10.9883 47.5712 11.7572 47.4197 12.4744 47.1232C13.1916 46.8268 13.8427 46.3913 14.3901 45.842L15.8148 44.417C15.921 44.484 29.2928 44.524 29.2928 44.524L30.6133 45.842C31.1606 46.3912 31.8115 46.8267 32.5285 47.1231C33.2455 47.4195 34.0143 47.5711 34.7904 47.569C34.9724 47.569 35.147 47.4968 35.2757 47.3683C35.4044 47.2399 35.4767 47.0657 35.4767 46.884C35.4767 46.7023 35.4044 46.5281 35.2757 46.3996C35.147 46.2711 34.9724 46.199 34.7904 46.199C34.1947 46.2003 33.6047 46.0838 33.0543 45.8562C32.504 45.6286 32.0044 45.2944 31.5842 44.873L28.8479 42.144C28.4391 41.736 29.0744 41.064 29.5022 41.491L31.7064 43.701C32.1925 44.1981 32.773 44.5935 33.414 44.8639C34.0551 45.1344 34.7437 45.2745 35.4396 45.276H38.6989C38.8178 45.2815 38.93 45.3325 39.0122 45.4185C39.0944 45.5044 39.1403 45.6187 39.1403 45.7375C39.1403 45.8563 39.0944 45.9705 39.0122 46.0565C38.93 46.1424 38.8178 46.1935 38.6989 46.199C38.5169 46.199 38.3423 46.2711 38.2136 46.3996C38.0849 46.5281 38.0126 46.7023 38.0126 46.884C38.0126 47.0657 38.0849 47.2399 38.2136 47.3683C38.3423 47.4968 38.5169 47.569 38.6989 47.569C39.1856 47.569 39.6523 47.376 39.9965 47.0325C40.3406 46.6891 40.5339 46.2232 40.5339 45.7375C40.5339 45.2517 40.3406 44.7859 39.9965 44.4424C39.6523 44.0989 39.1856 43.906 38.6989 43.906H36.151C37.4183 43.3694 38.5334 42.5292 39.3976 41.4598C40.2618 40.3904 40.8484 39.1247 41.1055 37.775L43.4962 26.017C43.6658 25.9156 43.8328 25.813 43.9971 25.709C44.4752 25.4119 44.8155 24.9376 44.9432 24.3902C45.071 23.8429 44.9757 23.2673 44.6784 22.79V22.79ZM4.36376 18.599C4.23233 18.4676 4.14288 18.3003 4.1067 18.1182C4.07052 17.9361 4.08923 17.7473 4.16049 17.5758C4.23174 17.4044 4.35233 17.2578 4.50701 17.1547C4.66169 17.0516 4.84353 16.9965 5.02954 16.9965C5.21555 16.9965 5.39739 17.0516 5.55207 17.1547C5.70676 17.2578 5.82734 17.4044 5.8986 17.5758C5.96985 17.7473 5.98857 17.9361 5.95239 18.1182C5.91621 18.3003 5.82675 18.4676 5.69532 18.599C5.51871 18.7752 5.27924 18.8741 5.02954 18.8741C4.77984 18.8741 4.54037 18.7752 4.36376 18.599V18.599ZM10.9404 24.219C11.094 23.6916 11.367 23.2065 11.7384 22.8013C12.1098 22.3961 12.5696 22.0816 13.0823 21.8822C13.595 21.6828 14.1468 21.6037 14.695 21.6512C15.2432 21.6987 15.773 21.8714 16.2436 22.156C16.3381 22.2131 16.445 22.2466 16.5552 22.2536C16.6654 22.2607 16.7757 22.2411 16.8767 22.1966C16.9777 22.152 17.0664 22.0838 17.1353 21.9977C17.2043 21.9116 17.2514 21.8101 17.2726 21.702C17.2897 21.613 17.3097 21.533 17.3307 21.459C17.4972 20.8851 17.8424 20.379 18.3163 20.0141C18.7902 19.6491 19.3682 19.4442 19.9665 19.4291C20.5649 19.4139 21.1526 19.5893 21.6444 19.9298C22.1363 20.2703 22.5067 20.7583 22.7021 21.323C22.7389 21.4292 22.8014 21.5248 22.884 21.6012C22.9666 21.6776 23.0668 21.7326 23.1757 21.7612C23.2846 21.7899 23.3989 21.7914 23.5085 21.7655C23.6181 21.7397 23.7197 21.6873 23.8042 21.613C24.2328 21.2367 24.7453 20.968 25.2989 20.8293C25.8526 20.6907 26.4315 20.686 26.9873 20.8157C27.5431 20.9454 28.0599 21.2058 28.4945 21.5751C28.9292 21.9444 29.2692 22.412 29.4862 22.939C29.534 23.0562 29.6135 23.1579 29.7158 23.2328C29.8181 23.3077 29.9391 23.3528 30.0656 23.3631C30.192 23.3735 30.3188 23.3487 30.4319 23.2915C30.5451 23.2342 30.6401 23.1468 30.7065 23.039C31.0409 22.4937 31.578 22.1027 32.2003 21.9513C32.8226 21.8 33.4796 21.9005 34.0279 22.231C34.1323 22.2939 34.2516 22.3279 34.3735 22.3295C34.4954 22.3311 34.6155 22.3003 34.7215 22.2402C34.8275 22.1801 34.9156 22.0929 34.9766 21.9876C35.0377 21.8823 35.0696 21.7627 35.0689 21.641C35.0658 21.1944 35.1585 20.7524 35.3409 20.3446C35.5233 19.9368 35.7911 19.5727 36.1263 19.2768C36.4614 18.981 36.8562 18.7602 37.284 18.6294C37.7118 18.4985 38.1627 18.4607 38.6064 18.5183C39.0501 18.576 39.4763 18.7278 39.8563 18.9637C40.2362 19.1995 40.5612 19.5138 40.8093 19.8854C41.0573 20.2571 41.2228 20.6775 41.2945 21.1183C41.3661 21.5591 41.3424 22.0101 41.2248 22.441C35.5031 25.6083 29.0443 27.21 22.5027 27.084C18.5465 27.1022 14.6081 26.5532 10.8082 25.454C10.7789 25.0371 10.8237 24.6183 10.9404 24.217V24.219ZM13.4182 44.873C12.998 45.2944 12.4984 45.6286 11.9481 45.8562C11.3978 46.0838 10.8077 46.2003 10.212 46.199H6.29548C6.17657 46.1935 6.06436 46.1424 5.98217 46.0565C5.89998 45.9705 5.85412 45.8563 5.85412 45.7375C5.85412 45.6187 5.89998 45.5044 5.98217 45.4185C6.06436 45.3325 6.17657 45.2815 6.29548 45.276H9.55476C10.2507 45.2745 10.9394 45.1344 11.5804 44.864C12.2214 44.5936 12.8019 44.1982 13.288 43.701L15.4922 41.491C15.5799 41.4091 15.6961 41.3645 15.8161 41.3665C15.9362 41.3685 16.0508 41.417 16.1357 41.5017C16.2206 41.5865 16.2692 41.7008 16.2712 41.8207C16.2732 41.9405 16.2285 42.0564 16.1465 42.144L13.4182 44.873ZM43.2757 24.548C37.711 28.024 30.3338 29.939 22.5027 29.939C18.3603 29.9582 14.2357 29.3961 10.2501 28.269C10.0764 28.2224 9.8914 28.2457 9.73477 28.3339C9.57815 28.422 9.46245 28.568 9.41256 28.7405C9.36268 28.9129 9.38259 29.098 9.46801 29.2559C9.55344 29.4138 9.69756 29.532 9.86937 29.585C13.9784 30.7477 18.2308 31.328 22.5017 31.309C29.233 31.4 35.8891 29.8882 41.9181 26.899L39.762 37.499C39.4798 39.0555 38.6688 40.4673 37.4656 41.4968C36.2624 42.5263 34.7405 43.1105 33.1562 43.151C32.9909 43.029 30.4681 40.522 30.4681 40.522C28.7728 38.83 26.1738 41.502 27.9151 43.154H17.0803C18.7996 41.485 16.2276 38.826 14.5273 40.522C14.5273 40.522 12.0045 43.029 11.8392 43.151C10.2565 43.1093 8.73644 42.5251 7.53455 41.4965C6.33266 40.4679 5.52221 39.0577 5.23945 37.503L3.08229 26.897C4.10793 27.4316 5.15996 27.9142 6.23436 28.343C6.40337 28.4105 6.59231 28.4082 6.75964 28.3367C6.92696 28.2651 7.05895 28.1302 7.12658 27.9615C7.19421 27.7928 7.19193 27.6042 7.12025 27.4372C7.04856 27.2702 6.91335 27.1385 6.74434 27.071C5.00009 26.3803 3.32091 25.5359 1.72668 24.548C1.56613 24.4391 1.4541 24.2723 1.41413 24.0827C1.37416 23.8931 1.40935 23.6955 1.51231 23.5312C1.61528 23.367 1.778 23.2489 1.96632 23.2019C2.15463 23.1549 2.35387 23.1825 2.52221 23.279C8.42759 26.968 15.5974 28.45 22.4997 28.45C30.0442 28.45 37.1389 26.613 42.4772 23.279C42.6458 23.1733 42.8496 23.1388 43.0437 23.183C43.2378 23.2273 43.4063 23.3467 43.5122 23.515C43.6181 23.6833 43.6527 23.8866 43.6083 24.0804C43.564 24.2741 43.4443 24.4423 43.2757 24.548V24.548Z" fill="black"/>
<path d="M31.5421 18.838C32.0298 18.838 32.5065 18.6937 32.912 18.4232C33.3175 18.1528 33.6335 17.7685 33.8201 17.3188C34.0068 16.8691 34.0556 16.3743 33.9605 15.8969C33.8653 15.4195 33.6305 14.981 33.2856 14.6368C32.9408 14.2926 32.5014 14.0582 32.0231 13.9633C31.5448 13.8683 31.049 13.9171 30.5985 14.1033C30.1479 14.2896 29.7628 14.605 29.4919 15.0097C29.2209 15.4144 29.0764 15.8902 29.0764 16.377C29.0772 17.0294 29.3372 17.6549 29.7994 18.1163C30.2617 18.5777 30.8884 18.8372 31.5421 18.838V18.838ZM31.5421 15.285C31.7585 15.285 31.97 15.349 32.1499 15.469C32.3299 15.589 32.4701 15.7596 32.5529 15.9591C32.6357 16.1586 32.6574 16.3782 32.6152 16.59C32.573 16.8019 32.4688 16.9964 32.3158 17.1492C32.1627 17.3019 31.9678 17.4059 31.7556 17.448C31.5433 17.4901 31.3233 17.4685 31.1234 17.3859C30.9235 17.3032 30.7526 17.1633 30.6324 16.9837C30.5121 16.8041 30.448 16.593 30.448 16.377C30.449 16.088 30.5648 15.8111 30.7698 15.6071C30.9748 15.403 31.2525 15.2883 31.5421 15.288V15.285Z" fill="black"/>
<path d="M37.3774 14.276C37.7737 14.276 38.1612 14.1587 38.4907 13.9389C38.8202 13.7192 39.077 13.4068 39.2287 13.0413C39.3804 12.6759 39.4201 12.2738 39.3428 11.8858C39.2654 11.4978 39.0746 11.1415 38.7943 10.8618C38.5141 10.5821 38.157 10.3916 37.7683 10.3144C37.3796 10.2372 36.9767 10.2768 36.6105 10.4282C36.2444 10.5796 35.9314 10.8359 35.7113 11.1648C35.4911 11.4937 35.3735 11.8804 35.3735 12.276C35.3735 12.8064 35.5847 13.3151 35.9605 13.6902C36.3362 14.0653 36.8459 14.276 37.3774 14.276ZM37.3774 11.652C37.5016 11.652 37.6231 11.6887 37.7264 11.7576C37.8297 11.8265 37.9102 11.9245 37.9578 12.039C38.0053 12.1536 38.0178 12.2797 37.9935 12.4013C37.9693 12.5229 37.9095 12.6346 37.8216 12.7223C37.7338 12.81 37.6218 12.8697 37.4999 12.8939C37.3781 12.9181 37.2518 12.9057 37.137 12.8582C37.0222 12.8108 36.9241 12.7304 36.8551 12.6273C36.786 12.5242 36.7492 12.403 36.7492 12.279C36.7497 12.1129 36.8161 11.9539 36.9338 11.8365C37.0515 11.7192 37.211 11.6532 37.3774 11.653V11.652Z" fill="black"/>
<path d="M16.0242 23.18C15.664 22.962 15.2583 22.8297 14.8385 22.7933C14.4188 22.757 13.9963 22.8175 13.6038 22.9703C13.2113 23.123 12.8592 23.3639 12.5749 23.6743C12.2907 23.9846 12.0818 24.3561 11.9644 24.76C11.9361 24.8472 11.9256 24.9393 11.9336 25.0306C11.9416 25.122 11.9679 25.2108 12.011 25.2919C12.054 25.3729 12.1129 25.4445 12.1842 25.5024C12.2555 25.5603 12.3377 25.6033 12.4259 25.6289C12.5141 25.6544 12.6066 25.6621 12.6979 25.6513C12.7891 25.6406 12.8773 25.6116 12.9572 25.5662C13.037 25.5208 13.1069 25.4598 13.1627 25.387C13.2185 25.3141 13.259 25.2308 13.282 25.142C13.3407 24.9399 13.4453 24.754 13.5876 24.5987C13.7299 24.4434 13.9061 24.3229 14.1026 24.2465C14.2991 24.1701 14.5105 24.1399 14.7206 24.1582C14.9306 24.1765 15.1336 24.2428 15.3139 24.352C15.391 24.4005 15.4771 24.4332 15.567 24.4482C15.657 24.4631 15.749 24.4601 15.8378 24.4391C15.9265 24.4182 16.0102 24.3798 16.0839 24.3262C16.1576 24.2726 16.2199 24.2049 16.2671 24.127C16.3143 24.0492 16.3455 23.9627 16.3588 23.8726C16.3721 23.7826 16.3674 23.6908 16.3448 23.6027C16.3222 23.5145 16.2822 23.4317 16.2271 23.3591C16.1721 23.2865 16.1031 23.2256 16.0242 23.18V23.18Z" fill="black"/>
<path d="M25.9753 23.39C26.0478 23.3503 26.1284 23.3279 26.2109 23.3242C26.2934 23.3206 26.3756 23.336 26.4512 23.3691C26.5269 23.4023 26.5938 23.4523 26.647 23.5154C26.7001 23.5785 26.7381 23.6529 26.7579 23.733C26.7776 23.8222 26.815 23.9065 26.8678 23.9811C26.9207 24.0556 26.988 24.1189 27.0657 24.1671C27.1434 24.2153 27.23 24.2475 27.3203 24.2619C27.4107 24.2762 27.5031 24.2723 27.5919 24.2505C27.6808 24.2287 27.7644 24.1894 27.8378 24.1349C27.9112 24.0804 27.9729 24.0117 28.0194 23.9331C28.0658 23.8544 28.096 23.7672 28.1082 23.6767C28.1204 23.5862 28.1144 23.4941 28.0904 23.406C28.0205 23.1217 27.8861 22.8574 27.6974 22.6333C27.5087 22.4093 27.2709 22.2316 27.0023 22.1141C26.7338 21.9965 26.4418 21.9422 26.1488 21.9553C25.8559 21.9685 25.5699 22.0488 25.3131 22.19C25.1586 22.2801 25.0456 22.4269 24.998 22.599C24.9503 22.7711 24.972 22.9549 25.0582 23.1114C25.1444 23.2678 25.2884 23.3845 25.4595 23.4365C25.6306 23.4886 25.8154 23.4719 25.9743 23.39H25.9753Z" fill="black"/>
</svg>