<svg xmlns="http://www.w3.org/2000/svg" width="52" height="43" viewBox="0 0 52 43" fill="none">
<path d="M3.59583 8.15002H47.8812V31.1H3.59583V8.15002Z" fill="#ED539D"/>
<path d="M47.8811 3.89998V8.14998H42.7713V3.89998C42.7713 3.22367 43.0405 2.57507 43.5196 2.09685C43.9988 1.61864 44.6486 1.34998 45.3262 1.34998C46.0038 1.34998 46.6537 1.61864 47.1328 2.09685C47.612 2.57507 47.8811 3.22367 47.8811 3.89998V3.89998Z" fill="#B39A7C"/>
<path d="M8.70567 3.89998V8.14998H3.59583V3.89998C3.59583 3.22367 3.865 2.57507 4.34414 2.09685C4.82329 1.61864 5.47314 1.34998 6.15075 1.34998C6.82836 1.34998 7.47821 1.61864 7.95735 2.09685C8.43649 2.57507 8.70567 3.22367 8.70567 3.89998V3.89998Z" fill="#B39A7C"/>
<path d="M48.7328 37.05V42.15H46.1779L44.4746 37.05H48.7328Z" fill="#B39A7C"/>
<path d="M7.00235 37.05L5.29906 42.15H2.74414V37.05H7.00235Z" fill="#B39A7C"/>
<path d="M1.04077 30.25H50.4359V37.05H1.04077V30.25Z" fill="#FFDA44"/>
<path d="M42.7712 16.65V21.75H27.4417V16.65C27.443 16.1996 27.6229 15.7679 27.942 15.4494C28.2612 15.1309 28.6937 14.9513 29.145 14.95H41.068C41.5193 14.9513 41.9518 15.1309 42.2709 15.4494C42.59 15.7679 42.7699 16.1996 42.7712 16.65V16.65Z" fill="#D8D7DA"/>
<path d="M24.0352 16.65V21.75H8.70563V16.65C8.70695 16.1996 8.88683 15.7679 9.20597 15.4494C9.52511 15.1309 9.95758 14.9513 10.4089 14.95H22.3319C22.7832 14.9513 23.2157 15.1309 23.5348 15.4494C23.854 15.7679 24.0338 16.1996 24.0352 16.65Z" fill="#D8D7DA"/>
<path d="M48.7327 26.85V30.25H2.74406V26.85C2.74014 25.8485 3.03676 24.8688 3.5957 24.037C4.06019 23.3336 4.69245 22.7565 5.43569 22.3573C6.17894 21.9581 7.00988 21.7494 7.8539 21.75H43.6228C44.4667 21.7493 45.2976 21.9578 46.0409 22.3568C46.7841 22.7558 47.4164 23.3328 47.881 24.036C48.4402 24.868 48.7368 25.8482 48.7327 26.85V26.85Z" fill="#5AAAE7"/>
<path d="M50.436 29.4H49.5844V26.85C49.5835 25.7743 49.2891 24.7193 48.7327 23.798V3.9C48.7327 2.99826 48.3738 2.13346 47.735 1.49584C47.0961 0.858213 46.2297 0.5 45.3262 0.5C44.4227 0.5 43.5562 0.858213 42.9174 1.49584C42.2785 2.13346 41.9196 2.99826 41.9196 3.9V7.3H9.55726V3.9C9.55726 2.99826 9.19836 2.13346 8.5595 1.49584C7.92065 0.858213 7.05417 0.5 6.1507 0.5C5.24722 0.5 4.38075 0.858213 3.74189 1.49584C3.10304 2.13346 2.74413 2.99826 2.74413 3.9V23.8C2.18816 24.7207 1.89375 25.775 1.89249 26.85V29.4H1.04085C0.814981 29.4 0.598363 29.4896 0.438649 29.649C0.278935 29.8084 0.189209 30.0246 0.189209 30.25V37.05C0.189209 37.2754 0.278935 37.4916 0.438649 37.651C0.598363 37.8104 0.814981 37.9 1.04085 37.9H1.89249V42.15C1.89249 42.3754 1.98222 42.5916 2.14193 42.751C2.30164 42.9104 2.51826 43 2.74413 43H5.29905C5.47708 42.9986 5.65032 42.9423 5.79506 42.8388C5.9398 42.7354 6.04896 42.5898 6.10761 42.422L7.61051 37.9H43.8614L45.3643 42.422C45.423 42.5899 45.5323 42.7356 45.6772 42.8391C45.8222 42.9426 45.9956 42.9988 46.1738 43H48.7287C48.9546 43 49.1712 42.9104 49.3309 42.751C49.4907 42.5916 49.5804 42.3754 49.5804 42.15V37.9H50.432C50.6579 37.9 50.8745 37.8104 51.0342 37.651C51.1939 37.4916 51.2837 37.2754 51.2837 37.05V30.25C51.2837 30.0253 51.1945 29.8097 51.0356 29.6504C50.8768 29.4911 50.6612 29.4011 50.436 29.4ZM43.6229 3.9C43.6229 3.67675 43.667 3.45569 43.7526 3.24944C43.8382 3.04318 43.9636 2.85578 44.1218 2.69792C44.2799 2.54006 44.4677 2.41484 44.6744 2.3294C44.881 2.24397 45.1025 2.2 45.3262 2.2C45.5499 2.2 45.7713 2.24397 45.978 2.3294C46.1847 2.41484 46.3724 2.54006 46.5306 2.69792C46.6888 2.85578 46.8142 3.04318 46.8998 3.24944C46.9854 3.45569 47.0295 3.67675 47.0295 3.9V7.3H43.6229V3.9ZM4.44741 3.9C4.44741 3.44913 4.62687 3.01673 4.94629 2.69792C5.26572 2.37911 5.69896 2.2 6.1507 2.2C6.60243 2.2 7.03567 2.37911 7.3551 2.69792C7.67453 3.01673 7.85398 3.44913 7.85398 3.9V7.3H4.44741V3.9ZM4.44741 9H47.0295V21.971C46.0306 21.2743 44.8415 20.9004 43.6229 20.9V16.65C43.6208 15.9743 43.3509 15.327 42.8722 14.8492C42.3936 14.3714 41.7449 14.1021 41.068 14.1H29.145C28.468 14.1021 27.8194 14.3714 27.3407 14.8492C26.8621 15.327 26.5922 15.9743 26.5901 16.65V20.9H24.8868V16.65C24.8847 15.9743 24.6148 15.327 24.1361 14.8492C23.6575 14.3714 23.0088 14.1021 22.3319 14.1H10.4089C9.73194 14.1021 9.08332 14.3714 8.60463 14.8492C8.12595 15.327 7.85609 15.9743 7.85398 16.65V20.9C6.63537 20.9004 5.44627 21.2743 4.44741 21.971V9ZM41.9196 16.65V20.9H28.2934V16.65C28.2934 16.4246 28.3831 16.2084 28.5428 16.049C28.7025 15.8896 28.9191 15.8 29.145 15.8H41.068C41.2938 15.8 41.5105 15.8896 41.6702 16.049C41.8299 16.2084 41.9196 16.4246 41.9196 16.65ZM23.1835 16.65V20.9H9.55726V16.65C9.55726 16.4246 9.64699 16.2084 9.8067 16.049C9.96641 15.8896 10.183 15.8 10.4089 15.8H22.3319C22.5577 15.8 22.7744 15.8896 22.9341 16.049C23.0938 16.2084 23.1835 16.4246 23.1835 16.65ZM3.59577 26.85C3.59577 25.7228 4.0444 24.6418 4.84297 23.8448C5.64154 23.0478 6.72463 22.6 7.85398 22.6H43.6229C44.7522 22.6 45.8353 23.0478 46.6339 23.8448C47.4325 24.6418 47.8811 25.7228 47.8811 26.85V29.4H3.59577V26.85ZM4.68587 41.3H3.59577V37.9H5.81906L4.68587 41.3ZM47.8811 41.3H46.791L45.6578 37.9H47.8811V41.3ZM49.5844 36.2H1.89249V31.1H49.5844V36.2Z" fill="black"/>
</svg>