<svg xmlns="http://www.w3.org/2000/svg" width="46" height="46" viewBox="0 0 46 46" fill="none">
<path d="M11.1463 24.215H34.6255V30.464H11.1463V24.215Z" fill="#4D6378"/>
<path d="M27.578 30.464V24.215H18.1899V30.464H11.1463V40.615H34.6255V30.464H27.578Z" fill="#42566B"/>
<path d="M45.5827 45.306H34.6256V24.215H45.5827V45.306Z" fill="#F6BB00"/>
<path d="M0.189209 0H11.1463V17.966H0.189209V0Z" fill="#F6BB00"/>
<path d="M0.189209 24.215H11.1463V45.306H0.189209V24.215Z" fill="#F6BB00"/>
<path d="M41.6691 26.559H43.2342V29.684H41.6691V26.559Z" fill="#EDA600"/>
<path d="M45.5827 17.966H34.6256V3.8147e-06H45.5827V17.966Z" fill="#F6BB00"/>
<path d="M14.2763 14.842H31.4945V17.967H14.2763V14.842Z" fill="#42566B"/>
<path d="M31.4945 14.842L28.3634 11.717H17.4073L14.2763 14.842H31.4945Z" fill="#4D6378"/>
<path d="M20.5384 26.559H25.2344V28.121H20.5384V26.559Z" fill="#02C26A"/>
<path d="M13.2143 28C13.7676 28 14.2162 27.5523 14.2162 27C14.2162 26.4477 13.7676 26 13.2143 26C12.6609 26 12.2123 26.4477 12.2123 27C12.2123 27.5523 12.6609 28 13.2143 28Z" fill="#42566B"/>
<path d="M15.7191 28C15.9958 28 16.2201 27.5523 16.2201 27C16.2201 26.4477 15.9958 26 15.7191 26C15.4424 26 15.2181 26.4477 15.2181 27C15.2181 27.5523 15.4424 28 15.7191 28Z" fill="#42566B"/>
<path d="M29.7461 28C30.0228 28 30.2471 27.5523 30.2471 27C30.2471 26.4477 30.0228 26 29.7461 26C29.4695 26 29.2452 26.4477 29.2452 27C29.2452 27.5523 29.4695 28 29.7461 28Z" fill="#42566B"/>
<path d="M32.251 28C32.8043 28 33.2529 27.5523 33.2529 27C33.2529 26.4477 32.8043 26 32.251 26C31.6976 26 31.249 26.4477 31.249 27C31.249 27.5523 31.6976 28 32.251 28Z" fill="#42566B"/>
<path d="M14.2763 33.589H31.4945V37.495H14.2763V33.589Z" fill="#84D8E8"/>
<path d="M11.1463 40.619H34.6255V45.306H11.1463V40.619Z" fill="#EDA600"/>
<path d="M11.1463 0H22.8859V11.717H11.1463V0Z" fill="#EDA600"/>
<path d="M18.9724 6.24899H20.5374V9.37399H18.9724V6.24899Z" fill="#CF8300"/>
<path d="M2.53674 12.498H4.10176V15.623H2.53674V12.498Z" fill="#EDA600"/>
<path d="M2.53674 26.559H4.10176V29.684H2.53674V26.559Z" fill="#EDA600"/>
<path d="M34.6255 11.717L22.8859 11.717V1.04904e-05L34.6255 1.04904e-05V11.717Z" fill="#DE9400"/>
<path d="M25.2334 6.24899H26.7984V9.37399H25.2334V6.24899Z" fill="#CF8300"/>
<path d="M41.6691 12.498H43.2342V15.623H41.6691V12.498Z" fill="#EDA600"/>
</svg>