<svg xmlns="http://www.w3.org/2000/svg" width="57" height="45" viewBox="0 0 57 45" fill="none">
<path d="M55.3918 33.937V32.112C55.3913 31.9583 55.3299 31.8111 55.221 31.7025C55.1121 31.5938 54.9646 31.5325 54.8107 31.532H47.4575C47.3036 31.5325 47.156 31.5938 47.0472 31.7025C46.9383 31.8111 46.8769 31.9583 46.8764 32.112V33.941L55.3918 33.937Z" fill="#9CE8FF"/>
<path d="M45.633 40.976V43.742C45.6335 43.8957 45.6949 44.0429 45.8038 44.1516C45.9127 44.2602 46.0601 44.3215 46.2141 44.322H47.2611C47.4151 44.3215 47.5626 44.2602 47.6715 44.1516C47.7803 44.0429 47.8417 43.8957 47.8422 43.742V40.976H45.633Z" fill="#FFAF68"/>
<path d="M54.423 43.742C54.4235 43.8957 54.4849 44.0429 54.5938 44.1516C54.7026 44.2602 54.8502 44.3215 55.0041 44.322H56.0511C56.2051 44.3215 56.3526 44.2602 56.4614 44.1516C56.5703 44.0429 56.6317 43.8957 56.6322 43.742V40.976H54.422V43.742H54.423Z" fill="#FFAF68"/>
<path d="M56.6322 38.5H45.633V41.333H56.6322V38.5Z" fill="#CB7C52"/>
<path d="M56.041 33.581H46.2221C46.0653 33.5815 45.9151 33.644 45.8044 33.7547C45.6936 33.8655 45.6312 34.0155 45.631 34.172V38.872H56.6302V34.172C56.6299 34.0159 56.5678 33.8661 56.4575 33.7554C56.3472 33.6447 56.1975 33.582 56.041 33.581V33.581Z" fill="#AB5436"/>
<path d="M52.2568 37.463H50.0095C49.7849 37.463 49.5696 37.3739 49.4108 37.2155C49.252 37.057 49.1628 36.8421 49.1628 36.618C49.1628 36.3938 49.252 36.1789 49.4108 36.0204C49.5696 35.862 49.7849 35.7729 50.0095 35.7729H52.2568C52.4814 35.7729 52.6967 35.862 52.8555 36.0204C53.0142 36.1789 53.1034 36.3938 53.1034 36.618C53.1034 36.8421 53.0142 37.057 52.8555 37.2155C52.6967 37.3739 52.4814 37.463 52.2568 37.463Z" fill="#CB7C52"/>
<path d="M5.9325 42.044V18.384C5.9325 18.1664 5.84589 17.9577 5.69171 17.8038C5.53754 17.6499 5.32844 17.5635 5.11041 17.5635C4.89238 17.5635 4.68328 17.6499 4.52911 17.8038C4.37494 17.9577 4.28833 18.1664 4.28833 18.384V42.044H5.9325Z" fill="#08375E"/>
<path d="M8.96334 41.678H1.94983C1.80039 41.6785 1.65722 41.738 1.55154 41.8435C1.44587 41.9489 1.38627 42.0918 1.38574 42.241V43.769C1.38627 43.9181 1.44587 44.061 1.55154 44.1665C1.65722 44.272 1.80039 44.3314 1.94983 44.332H8.96334V41.678Z" fill="#63C3EA"/>
<g opacity="0.1">
<path opacity="0.1" d="M3.8555 43.767V42.239C3.85603 42.0898 3.91563 41.9469 4.0213 41.8415C4.12697 41.736 4.27015 41.6765 4.41959 41.676H1.94983C1.80039 41.6765 1.65722 41.736 1.55154 41.8415C1.44587 41.9469 1.38627 42.0898 1.38574 42.239V43.767C1.38627 43.9161 1.44587 44.059 1.55154 44.1645C1.65722 44.27 1.80039 44.3295 1.94983 44.33H4.41959C4.27015 44.3295 4.12697 44.27 4.0213 44.1645C3.91563 44.059 3.85603 43.9161 3.8555 43.767V43.767Z" fill="#231F20"/>
</g>
<path d="M9.69976 19.33C9.69923 19.4791 9.63963 19.622 9.53396 19.7275C9.42829 19.833 9.28512 19.8924 9.13568 19.893H1.08917C0.93973 19.8924 0.796559 19.833 0.690886 19.7275C0.585213 19.622 0.525614 19.4791 0.525085 19.33L0.525085 9.10597C0.525614 8.95682 0.585213 8.81392 0.690886 8.70845C0.796559 8.60298 0.93973 8.5435 1.08917 8.54297H9.13467C9.28412 8.5435 9.42729 8.60298 9.53296 8.70845C9.63863 8.81392 9.69823 8.95682 9.69876 9.10597V19.333L9.69976 19.33Z" fill="#FF9F3D"/>
<path opacity="0.1" d="M2.95176 19.33V9.10597C2.95229 8.95682 3.01189 8.81392 3.11756 8.70845C3.22323 8.60298 3.36641 8.5435 3.51585 8.54297H1.08917C0.93973 8.5435 0.796559 8.60298 0.690886 8.70845C0.585213 8.81392 0.525614 8.95682 0.525085 9.10597V19.333C0.525614 19.4821 0.585213 19.625 0.690886 19.7305C0.796559 19.836 0.93973 19.8954 1.08917 19.896H3.51685C3.44251 19.8958 3.36892 19.8811 3.30029 19.8526C3.23166 19.8241 3.16933 19.7823 3.11686 19.7298C3.06438 19.6772 3.0228 19.6149 2.99447 19.5463C2.96614 19.4777 2.95163 19.4042 2.95176 19.33V19.33Z" fill="#231F20"/>
<path d="M40.5212 23.528H13.3819C13.0826 23.5288 12.7959 23.6478 12.5843 23.859C12.3727 24.0702 12.2535 24.3563 12.2527 24.655V36.053H41.6503V24.653C41.649 24.3547 41.5296 24.069 41.318 23.8583C41.1065 23.6475 40.82 23.5288 40.5212 23.528Z" fill="#FFBB4A"/>
<path opacity="0.1" d="M15.3516 23.528H13.3808C13.0816 23.5288 12.7948 23.6478 12.5833 23.859C12.3717 24.0702 12.2524 24.3563 12.2516 24.655V36.053H14.2224V24.653C14.2238 24.3547 14.3432 24.069 14.5548 23.8583C14.7663 23.6475 15.0527 23.5288 15.3516 23.528V23.528Z" fill="#231F20"/>
<path d="M27.7736 23.528H26.1294V36.054H27.7736V23.528Z" fill="#FF9F3D"/>
<path d="M22.9323 35.486C22.9318 35.6351 22.8722 35.778 22.7665 35.8835C22.6608 35.989 22.5177 36.0485 22.3682 36.049H17.2965C17.147 36.0485 17.0038 35.989 16.8982 35.8835C16.7925 35.778 16.7329 35.6351 16.7324 35.486V30.42C16.7329 30.2708 16.7925 30.1279 16.8982 30.0225C17.0038 29.917 17.147 29.8575 17.2965 29.857H22.3682C22.5177 29.8575 22.6608 29.917 22.7665 30.0225C22.8722 30.1279 22.9318 30.2708 22.9323 30.42V35.486Z" fill="#3EAF91"/>
<path d="M37.6307 35.486C37.6301 35.6351 37.5705 35.778 37.4648 35.8835C37.3592 35.989 37.216 36.0485 37.0666 36.049H31.9948C31.8454 36.0485 31.7022 35.989 31.5965 35.8835C31.4908 35.778 31.4313 35.6351 31.4307 35.486V30.42C31.4313 30.2708 31.4908 30.1279 31.5965 30.0225C31.7022 29.917 31.8454 29.8575 31.9948 29.857H37.0666C37.216 29.8575 37.3592 29.917 37.4648 30.0225C37.5705 30.1279 37.6301 30.2708 37.6307 30.42V35.486Z" fill="#3EAF91"/>
<path d="M41.6503 35.637H12.2527V41.434H41.6503V35.637Z" fill="#FF9F3D"/>
<path d="M12.1385 31.401H9.38222C9.07784 31.4021 8.78625 31.5233 8.57112 31.7382C8.35599 31.9531 8.2348 32.2442 8.23401 32.548V43.748C8.23427 43.9 8.29481 44.0457 8.40239 44.1532C8.50997 44.2608 8.65584 44.3215 8.80811 44.322H12.7156C12.8679 44.3215 13.0138 44.2608 13.1214 44.1532C13.2289 44.0457 13.2895 43.9 13.2897 43.748V32.548C13.289 32.2437 13.1673 31.9521 12.9516 31.7371C12.7358 31.5221 12.4434 31.4013 12.1385 31.401V31.401Z" fill="#FCC96C"/>
<path opacity="0.1" d="M10.6567 43.749V32.549C10.6575 32.2452 10.7787 31.9541 10.9938 31.7392C11.2089 31.5243 11.5005 31.403 11.8049 31.402H9.38222C9.07784 31.403 8.78625 31.5243 8.57112 31.7392C8.35599 31.9541 8.2348 32.2452 8.23401 32.549V43.749C8.23427 43.901 8.29481 44.0467 8.40239 44.1542C8.50997 44.2618 8.65584 44.3225 8.80811 44.323H11.2308C11.0785 44.3225 10.9326 44.2618 10.8251 44.1542C10.7175 44.0467 10.6569 43.901 10.6567 43.749V43.749Z" fill="#231F20"/>
<path d="M44.5219 31.401H41.7695C41.4652 31.4021 41.1736 31.5233 40.9584 31.7382C40.7433 31.9531 40.6221 32.2442 40.6213 32.548V43.748C40.6216 43.9 40.6821 44.0457 40.7897 44.1532C40.8973 44.2608 41.0432 44.3215 41.1954 44.322H45.103C45.2552 44.3215 45.4011 44.2608 45.5087 44.1532C45.6163 44.0457 45.6768 43.9 45.6771 43.748V32.548C45.6767 32.397 45.6465 32.2475 45.5882 32.1081C45.5299 31.9688 45.4448 31.8422 45.3375 31.7357C45.2302 31.6292 45.103 31.5448 44.963 31.4874C44.8231 31.4299 44.6732 31.4006 44.5219 31.401V31.401Z" fill="#FCC96C"/>
<path opacity="0.1" d="M42.4699 43.749V32.549C42.4707 32.2452 42.5919 31.9541 42.807 31.7392C43.0222 31.5243 43.3138 31.403 43.6181 31.402H41.7686C41.4642 31.403 41.1726 31.5243 40.9575 31.7392C40.7423 31.9541 40.6212 32.2452 40.6204 32.549V43.749C40.6206 43.901 40.6812 44.0467 40.7887 44.1542C40.8963 44.2618 41.0422 44.3225 41.1945 44.323H43.042C42.8901 44.3219 42.7447 44.261 42.6376 44.1535C42.5304 44.046 42.4702 43.9006 42.4699 43.749V43.749Z" fill="#231F20"/>
<path d="M39.6385 2.59296H14.2656C14.1062 2.59296 13.9533 2.65617 13.8405 2.76869C13.7278 2.88121 13.6644 3.03383 13.6644 3.19296V17.176C13.6644 17.3351 13.7278 17.4877 13.8405 17.6002C13.9533 17.7127 14.1062 17.776 14.2656 17.776H39.6375C39.7969 17.776 39.9498 17.7127 40.0626 17.6002C40.1753 17.4877 40.2386 17.3351 40.2386 17.176V3.19096C40.2381 3.03235 40.1747 2.8804 40.0622 2.76834C39.9497 2.65628 39.7974 2.59322 39.6385 2.59296V2.59296Z" fill="#AB5436"/>
<path d="M16.3937 15.383C16.3066 15.3827 16.2232 15.3481 16.1616 15.2867C16.1 15.2252 16.0653 15.1419 16.0651 15.055V5.31201C16.0653 5.2251 16.1 5.14182 16.1616 5.08037C16.2232 5.01891 16.3066 4.98427 16.3937 4.98401H37.5144C37.6015 4.98427 37.6849 5.01891 37.7465 5.08037C37.808 5.14182 37.8428 5.2251 37.843 5.31201V15.052C37.8428 15.1389 37.808 15.2222 37.7465 15.2836C37.6849 15.3451 37.6015 15.3797 37.5144 15.38L16.3937 15.383Z" fill="#B1E8FF"/>
<path d="M45.9466 23.516C45.8823 23.5157 45.8198 23.4949 45.7682 23.4566C45.7166 23.4182 45.6787 23.3644 45.6601 23.303C45.1892 21.777 44.8655 21.45 43.3556 20.975C43.2915 20.958 43.2348 20.9204 43.1944 20.868C43.1539 20.8155 43.132 20.7512 43.132 20.685C43.132 20.6188 43.1539 20.5545 43.1944 20.502C43.2348 20.4495 43.2915 20.4119 43.3556 20.395C44.8675 19.92 45.1912 19.595 45.6601 18.067C45.6791 18.0058 45.7172 17.9524 45.7689 17.9144C45.8205 17.8764 45.883 17.856 45.9471 17.856C46.0113 17.856 46.0737 17.8764 46.1254 17.9144C46.177 17.9524 46.2152 18.0058 46.2342 18.067C46.7051 19.594 47.0277 19.92 48.5386 20.395C48.6027 20.4119 48.6594 20.4495 48.6999 20.502C48.7403 20.5545 48.7623 20.6188 48.7623 20.685C48.7623 20.7512 48.7403 20.8155 48.6999 20.868C48.6594 20.9204 48.6027 20.958 48.5386 20.975C47.0267 21.45 46.7041 21.775 46.2342 23.303C46.2155 23.3646 46.1774 23.4185 46.1256 23.4569C46.0739 23.4952 46.0111 23.516 45.9466 23.516V23.516Z" fill="#FFBB4A"/>
<path d="M50.0806 11.459C50.0093 11.459 49.9399 11.436 49.8826 11.3935C49.8254 11.351 49.7835 11.2912 49.763 11.223C49.242 9.53301 48.8833 9.171 47.2091 8.644C47.1409 8.62225 47.0814 8.57943 47.0392 8.52174C46.997 8.46404 46.9742 8.39445 46.9742 8.32301C46.9742 8.25156 46.997 8.18197 47.0392 8.12427C47.0814 8.06657 47.1409 8.02376 47.2091 8.00201C48.8833 7.47601 49.242 7.114 49.763 5.423C49.7835 5.35485 49.8255 5.29512 49.8827 5.25266C49.9399 5.21019 50.0093 5.18726 50.0806 5.18726C50.1519 5.18726 50.2213 5.21019 50.2786 5.25266C50.3358 5.29512 50.3777 5.35485 50.3982 5.423C50.9202 7.114 51.2779 7.47601 52.9522 8.00201C53.0203 8.02376 53.0798 8.06657 53.122 8.12427C53.1643 8.18197 53.187 8.25156 53.187 8.32301C53.187 8.39445 53.1643 8.46404 53.122 8.52174C53.0798 8.57943 53.0203 8.62225 52.9522 8.644C51.2779 9.171 50.9202 9.53201 50.3982 11.223C50.3776 11.2911 50.3356 11.3508 50.2785 11.3933C50.2213 11.4358 50.1519 11.4588 50.0806 11.459V11.459Z" fill="#FFBB4A"/>
<path d="M8.37123 4.68298C8.31798 4.68292 8.26616 4.66577 8.22341 4.63409C8.18065 4.6024 8.14923 4.55784 8.13377 4.50698C7.74402 3.24398 7.47651 2.97298 6.23011 2.57998C6.17952 2.56346 6.13546 2.5314 6.10421 2.48839C6.07297 2.44538 6.05615 2.39361 6.05615 2.34048C6.05615 2.28736 6.07297 2.23559 6.10421 2.19258C6.13546 2.14956 6.17952 2.11751 6.23011 2.10098C7.48152 1.70798 7.74903 1.43798 8.13377 0.173985C8.14942 0.123319 8.18092 0.0789922 8.22365 0.0475044C8.26639 0.0160167 8.31811 -0.000976562 8.37123 -0.000976562C8.42435 -0.000976562 8.47607 0.0160167 8.51881 0.0475044C8.56154 0.0789922 8.59304 0.123319 8.60869 0.173985C8.99844 1.43798 9.26595 1.70798 10.5124 2.10098C10.5629 2.11751 10.607 2.14956 10.6382 2.19258C10.6695 2.23559 10.6863 2.28736 10.6863 2.34048C10.6863 2.39361 10.6695 2.44538 10.6382 2.48839C10.607 2.5314 10.5629 2.56346 10.5124 2.57998C9.26094 2.97398 8.99443 3.24398 8.60869 4.50698C8.59309 4.55776 8.56163 4.60223 8.51891 4.63389C8.47619 4.66556 8.42444 4.68276 8.37123 4.68298V4.68298Z" fill="#FFBB4A"/>
<path d="M33.5708 9.95996L30.0189 15.382H37.5144L33.9625 9.95996C33.9451 9.92284 33.9173 9.89146 33.8827 9.86948C33.848 9.84749 33.8077 9.83582 33.7667 9.83582C33.7256 9.83582 33.6853 9.84749 33.6506 9.86948C33.616 9.89146 33.5883 9.92284 33.5708 9.95996V9.95996Z" fill="#86D5B5"/>
<path d="M26.7136 7.30199L21.4194 15.383H32.3985L27.1043 7.30199C27.0867 7.26515 27.059 7.23403 27.0245 7.21224C26.9899 7.19046 26.9498 7.17889 26.909 7.17889C26.8681 7.17889 26.828 7.19046 26.7934 7.21224C26.7588 7.23403 26.7312 7.26515 26.7136 7.30199Z" fill="#3EAF91"/>
<path d="M20.0216 9.84001L16.3896 15.383H24.0434L20.4124 9.84001C20.3948 9.80317 20.3671 9.77205 20.3325 9.75026C20.298 9.72847 20.2579 9.71692 20.217 9.71692C20.1761 9.71692 20.1361 9.72847 20.1015 9.75026C20.0669 9.77205 20.0392 9.80317 20.0216 9.84001Z" fill="#86D5B5"/>
<path opacity="0.1" d="M16.3937 4.98398C16.3066 4.98424 16.2232 5.01888 16.1616 5.08034C16.1 5.14179 16.0653 5.22507 16.0651 5.31198V15.052C16.0653 15.1389 16.1 15.2222 16.1616 15.2836C16.2232 15.3451 16.3066 15.3797 16.3937 15.38H17.9717V4.97998L16.3937 4.98398Z" fill="#231F20"/>
<path d="M55.3918 30.9539C55.3913 31.1076 55.3299 31.2548 55.221 31.3635C55.1121 31.4722 54.9646 31.5334 54.8107 31.534H47.4575C47.3036 31.5334 47.156 31.4722 47.0472 31.3635C46.9383 31.2548 46.8769 31.1076 46.8764 30.9539V29.6339C46.8769 29.4803 46.9383 29.3331 47.0472 29.2244C47.156 29.1158 47.3036 29.0545 47.4575 29.054H54.8107C54.9646 29.0545 55.1121 29.1158 55.221 29.2244C55.3299 29.3331 55.3913 29.4803 55.3918 29.6339V30.9539Z" fill="#63C3EA"/>
</svg>