<svg xmlns="http://www.w3.org/2000/svg" width="49" height="49" viewBox="0 0 49 49" fill="none">
<path d="M41.6691 7.31699H36.1584V16.917H41.6691V7.31699Z" fill="#F05540"/>
<path d="M43.7731 2.41699H34.0544V7.61699H43.7731V2.41699Z" fill="#F3705A"/>
<path d="M4.39722 26.317V48.417H43.6729V26.317L24.0351 6.71701C16.4204 14.417 12.1121 18.717 4.39722 26.317Z" fill="#FFD15C"/>
<path d="M43.7731 26.317L24.1353 6.71701C20.2277 10.517 17.2219 13.517 14.2161 16.517L4.39722 26.317V30.817L24.0351 11.217L43.6729 30.817V31.417V26.317H43.7731Z" fill="#F7B64C"/>
<path d="M20.5283 48.417H8.70557V36.817C8.70848 35.2531 9.33222 33.7541 10.4402 32.6483C11.5482 31.5424 13.0501 30.9199 14.617 30.917V30.917C16.1839 30.9199 17.6858 31.5424 18.7937 32.6483C19.9017 33.7541 20.5254 35.2531 20.5283 36.817V48.417Z" fill="#415A6B"/>
<path d="M39.4648 30.917H24.035V44.417H39.4648V30.917Z" fill="#344A5E"/>
<path d="M30.9484 32.517H25.6382V42.817H30.9484V32.517Z" fill="#8AD7F8"/>
<path d="M37.8617 32.517H32.5515V42.817H37.8617V32.517Z" fill="#8AD7F8"/>
<path d="M47.3801 22.217L26.4397 1.317C25.832 0.739139 25.0248 0.416809 24.1854 0.416809C23.346 0.416809 22.5388 0.739139 21.931 1.317L1.09089 22.217C0.511917 22.8236 0.188965 23.6292 0.188965 24.467C0.188965 25.3048 0.511917 26.1104 1.09089 26.717C1.69876 27.2946 2.50592 27.6168 3.34524 27.6168C4.18455 27.6168 4.99172 27.2946 5.59958 26.717L24.2355 8.117L42.8714 26.717C43.47 27.3103 44.2798 27.6426 45.1234 27.6411C45.967 27.6396 46.7757 27.3045 47.3722 26.7091C47.9687 26.1138 48.3045 25.3067 48.306 24.4647C48.3075 23.6227 47.9745 22.8145 47.3801 22.217Z" fill="#F3705A"/>
</svg>